<svg xmlns="http://www.w3.org/2000/svg" width="1920" height="1080" viewBox="0 0 1920 1080">
  <defs>
    <filter id="paper"><feTurbulence baseFrequency="0.7" numOctaves="3" seed="19" result="noise"/><feColorMatrix in="noise" type="saturate" values="0"/><feComponentTransfer><feFuncA type="table" tableValues="0 0.13"/></feComponentTransfer></filter>
    <filter id="shadow" x="-20%" y="-20%" width="140%" height="140%"><feDropShadow dx="0" dy="18" stdDeviation="14" flood-color="#18222b" flood-opacity="0.22"/></filter>
    <pattern id="grid" width="64" height="64" patternUnits="userSpaceOnUse"><path d="M64 0H0V64" fill="none" stroke="#143a52" stroke-opacity="0.09" stroke-width="2"/></pattern>
    <marker id="arrow" viewBox="0 0 10 10" refX="9" refY="5" markerWidth="8" markerHeight="8" orient="auto-start-reverse"><path d="M0 0L10 5L0 10Z" fill="#d3a329"/></marker>
  </defs>
  <rect width="1920" height="1080" fill="#f4ead7"/>
  <rect width="1920" height="1080" fill="url(#grid)"/>
  <rect width="1920" height="1080" filter="url(#paper)" opacity="0.7"/>
  <rect x="64" y="54" width="1792" height="972" rx="34" fill="none" stroke="#173d58" stroke-width="8"/>
  <path d="M96 190H1824" stroke="#d19b2a" stroke-width="6"/>
  <text x="110" y="112" font-family="Inter,Arial,sans-serif" font-size="28" font-weight="800" letter-spacing="5" fill="#bb4934">S&amp;P 500 INCLUSION MECHANICS</text>
  <text x="110" y="172" font-family="Inter,Arial,sans-serif" font-size="54" font-weight="900" fill="#172934">The Index Has an Entry Gate—not a Quality Ranking</text>
  <g transform="translate(135 250)" filter="url(#shadow)">
  <g font-family="Inter,Arial" font-size="34" font-weight="900" text-anchor="middle"><rect x="0" y="70" width="360" height="180" rx="28" fill="#173d58"/><text x="180" y="175" fill="#fff6df">SIZE</text><rect x="0" y="295" width="360" height="180" rx="28" fill="#0f6674"/><text x="180" y="400" fill="#fff6df">LIQUIDITY</text><rect x="0" y="520" width="360" height="180" rx="28" fill="#d36a4a"/><text x="180" y="625" fill="#fff6df">PROFITABILITY</text></g>
  <path d="M410 385H760" stroke="#d3a329" stroke-width="24" marker-end="url(#arrow)"/>
  <rect x="790" y="120" width="710" height="510" rx="38" fill="#173d58"/><text x="1145" y="255" text-anchor="middle" font-family="Inter,Arial" font-size="58" font-weight="900" fill="#f5c34f">ADMITTED</text><text x="1145" y="350" text-anchor="middle" font-family="Inter,Arial" font-size="36" fill="#fff6df">After entry, the standard index</text><text x="1145" y="405" text-anchor="middle" font-family="Inter,Arial" font-size="36" fill="#fff6df">does not continuously rank firms</text><text x="1145" y="460" text-anchor="middle" font-family="Inter,Arial" font-size="36" fill="#fff6df">by cash flow or return on capital.</text><text x="1145" y="565" text-anchor="middle" font-family="Inter,Arial" font-size="42" font-weight="900" fill="#95d4d2">GATE ≠ OPTIMIZER</text>
</g>
  <rect x="94" y="952" width="1732" height="54" rx="12" fill="#173d58"/>
  <text x="120" y="987" font-family="Roboto Mono,Consolas,monospace" font-size="21" fill="#f7eddb">S&amp;P Dow Jones Indices · S&amp;P U.S. Indices Methodology · inclusion rules</text>
</svg>