<svg xmlns="http://www.w3.org/2000/svg" width="1920" height="1080" viewBox="0 0 1920 1080">
  <defs>
    <filter id="paper"><feTurbulence baseFrequency="0.7" numOctaves="3" seed="19" result="noise"/><feColorMatrix in="noise" type="saturate" values="0"/><feComponentTransfer><feFuncA type="table" tableValues="0 0.13"/></feComponentTransfer></filter>
    <filter id="shadow" x="-20%" y="-20%" width="140%" height="140%"><feDropShadow dx="0" dy="18" stdDeviation="14" flood-color="#18222b" flood-opacity="0.22"/></filter>
    <pattern id="grid" width="64" height="64" patternUnits="userSpaceOnUse"><path d="M64 0H0V64" fill="none" stroke="#143a52" stroke-opacity="0.09" stroke-width="2"/></pattern>
    <marker id="arrow" viewBox="0 0 10 10" refX="9" refY="5" markerWidth="8" markerHeight="8" orient="auto-start-reverse"><path d="M0 0L10 5L0 10Z" fill="#d3a329"/></marker>
  </defs>
  <rect width="1920" height="1080" fill="#f4ead7"/>
  <rect width="1920" height="1080" fill="url(#grid)"/>
  <rect width="1920" height="1080" filter="url(#paper)" opacity="0.7"/>
  <rect x="64" y="54" width="1792" height="972" rx="34" fill="none" stroke="#173d58" stroke-width="8"/>
  <path d="M96 190H1824" stroke="#d19b2a" stroke-width="6"/>
  <text x="110" y="112" font-family="Inter,Arial,sans-serif" font-size="28" font-weight="800" letter-spacing="5" fill="#bb4934">WHAT THE SAME CONTRIBUTION OWNS</text>
  <text x="110" y="172" font-family="Inter,Arial,sans-serif" font-size="54" font-weight="900" fill="#172934">The Rule Buys Every Qualifier Automatically</text>
  <g transform="translate(125 260)" filter="url(#shadow)">
  <path d="M790 40V180M790 180H245M790 180H1335M245 180V300M790 180V300M1335 180V300" fill="none" stroke="#d3a329" stroke-width="20"/>
  <ellipse cx="790" cy="45" rx="300" ry="80" fill="#173d58"/><text x="790" y="62" text-anchor="middle" font-family="Inter,Arial" font-size="43" font-weight="900" fill="#fff6df">ONE AUTOMATIC CONTRIBUTION</text>
  <g font-family="Inter,Arial" text-anchor="middle"><rect x="0" y="300" width="490" height="360" rx="34" fill="#0f6674"/><text x="245" y="420" font-size="46" font-weight="900" fill="#fff6df">COMPOUNDER</text><text x="245" y="500" font-size="29" fill="#fff6df">high reinvestment runway</text><rect x="545" y="300" width="490" height="360" rx="34" fill="#173d58"/><text x="790" y="420" font-size="46" font-weight="900" fill="#fff6df">INCUMBENT</text><text x="790" y="500" font-size="29" fill="#fff6df">mature but still large</text><rect x="1090" y="300" width="490" height="360" rx="34" fill="#786a58"/><text x="1335" y="420" font-size="46" font-weight="900" fill="#fff6df">QUALIFIER</text><text x="1335" y="500" font-size="29" fill="#fff6df">large enough to remain</text></g>
</g>
  <rect x="94" y="952" width="1732" height="54" rx="12" fill="#173d58"/>
  <text x="120" y="987" font-family="Roboto Mono,Consolas,monospace" font-size="21" fill="#f7eddb">Episode mechanism illustration · not a claim that any named company lacks quality</text>
</svg>